<svg xmlns="http://www.w3.org/2000/svg" viewBox="0 0 64 64">
  <rect width="64" height="64" rx="14" fill="#D97757"/>
  <path d="M14 16 C 20 14.5, 26 15, 32 19 C 38 15, 44 14.5, 50 16 L50 46 C 44 44.5, 38 45, 32 49 C 26 45, 20 44.5, 14 46 Z" fill="#FFF8F2"/>
  <path d="M32 19 L32 49" stroke="#D97757" stroke-width="2.2" stroke-linecap="round"/>
  <path d="M18.5 23 C 22 22.3, 25.5 22.8, 28.5 24.5" stroke="#E8B39D" stroke-width="1.8" stroke-linecap="round" fill="none"/>
  <path d="M18.5 30.5 C 22 29.8, 25.5 30.3, 28.5 32" stroke="#E8B39D" stroke-width="1.8" stroke-linecap="round" fill="none"/>
  <path d="M18.5 38 C 22 37.3, 25.5 37.8, 28.5 39.5" stroke="#E8B39D" stroke-width="1.8" stroke-linecap="round" fill="none"/>
  <path d="M35.5 24.5 C 38.5 22.8, 42 22.3, 45.5 23" stroke="#E8B39D" stroke-width="1.8" stroke-linecap="round" fill="none"/>
  <path d="M35.5 32 C 38.5 30.3, 42 29.8, 45.5 30.5" stroke="#E8B39D" stroke-width="1.8" stroke-linecap="round" fill="none"/>
  <path d="M35.5 39.5 C 38.5 37.8, 42 37.3, 45.5 38" stroke="#E8B39D" stroke-width="1.8" stroke-linecap="round" fill="none"/>
</svg>
